<svg width="27" height="25" viewBox="0 0 27 25" fill="none" xmlns="http://www.w3.org/2000/svg">
<path d="M17.7145 21.5267C17.7145 20.3827 18.6288 19.464 19.7203 19.464C20.8118 19.464 21.726 20.3827 21.726 21.5267C21.726 22.6707 20.8118 23.5894 19.7203 23.5894C18.6288 23.5894 17.7145 22.6707 17.7145 21.5267ZM17.7168 21.5267C17.7168 22.6379 18.6067 23.5643 19.7203 23.5643C20.8339 23.5643 21.7237 22.6379 21.7237 21.5267C21.7237 20.4155 20.8339 19.4891 19.7203 19.4891C18.6067 19.4891 17.7168 20.4155 17.7168 21.5267Z" fill="white" stroke="white"/>
<path d="M7.69153 21.5267C7.69153 20.3827 8.60579 19.464 9.69729 19.464C10.7888 19.464 11.703 20.3827 11.703 21.5267C11.703 22.6707 10.7888 23.5894 9.69729 23.5894C8.60579 23.5894 7.69153 22.6707 7.69153 21.5267ZM7.69383 21.5267C7.69383 22.6379 8.58371 23.5643 9.69729 23.5643C10.8109 23.5643 11.7007 22.6379 11.7007 21.5267C11.7007 20.4155 10.8109 19.4891 9.69729 19.4891C8.58371 19.4891 7.69383 20.4155 7.69383 21.5267Z" fill="white" stroke="white"/>
<path d="M4.57092 3.68374L4.64993 4.08778H5.06162H25.5086C25.8335 4.08778 26.1331 4.25293 26.3214 4.53303C26.3597 4.58993 26.3921 4.65026 26.4185 4.713C26.393 4.6537 26.3626 4.59734 26.3284 4.54484L26.3166 4.52679L26.3033 4.50982C26.1265 4.28379 25.8651 4.11287 25.5086 4.11287H5.28714H4.68714L4.79534 4.70303L5.1712 6.75319L5.24634 7.16303H5.663H17.6869C17.687 7.16307 17.687 7.16311 17.6871 7.16315C17.6884 7.16453 17.6897 7.16636 17.6905 7.16837C17.6912 7.17005 17.6918 7.17223 17.6918 7.17557C17.6918 7.17891 17.6912 7.18109 17.6905 7.18277C17.6899 7.1841 17.6892 7.18536 17.6884 7.18646C17.688 7.18701 17.6875 7.18753 17.6871 7.18799C17.687 7.18803 17.687 7.18807 17.6869 7.18811H5.86346H5.26033L5.37213 7.78079L6.87558 15.7508L6.87548 15.7508L6.87754 15.7607C7.07218 16.6896 7.88704 17.4138 8.84531 17.4138H20.5722C21.4129 17.4138 22.1478 16.8944 22.4442 16.0885C22.4444 16.0879 22.4447 16.0872 22.4449 16.0865L26.4208 5.49888C26.4361 5.4651 26.4491 5.43113 26.46 5.39711C26.4501 5.43135 26.4382 5.46532 26.4244 5.49885L26.4214 5.50609L26.4187 5.51342L22.4346 16.1228C22.4346 16.1229 22.4345 16.1229 22.4345 16.123C22.1284 16.9367 21.3815 17.4645 20.5472 17.4645H8.82026C7.86942 17.4645 7.03688 16.7752 6.83007 15.7917L4.6761 4.26475L4.66363 4.198L4.6338 4.13699C4.63206 4.13343 4.63054 4.13031 4.62919 4.12754L4.62544 4.10809L4.25036 2.16452C4.08214 1.21384 3.27719 0.525081 2.30529 0.525081H0.504833C0.504795 0.525043 0.504756 0.525004 0.504716 0.524964C0.503363 0.52358 0.502122 0.521746 0.50129 0.519743C0.500591 0.51806 0.5 0.515884 0.5 0.512541C0.5 0.509198 0.500591 0.507022 0.501291 0.505338C0.502122 0.503336 0.503364 0.501501 0.504716 0.500118C0.504756 0.500077 0.504795 0.500038 0.504833 0.5H2.30529C3.26674 0.5 4.08812 1.17361 4.26947 2.14218L4.26946 2.14218L4.27023 2.14612L4.57092 3.68374Z" fill="white" stroke="white"/>
<path d="M19.9494 7.16311C19.9495 7.16307 19.9495 7.16303 19.9495 7.16299H20.6939C20.6939 7.16303 20.694 7.16307 20.694 7.16311C20.6954 7.1645 20.6966 7.16633 20.6974 7.16833C20.6981 7.17002 20.6987 7.17219 20.6987 7.17553C20.6987 7.17888 20.6981 7.18105 20.6974 7.18274C20.6966 7.18474 20.6954 7.18657 20.694 7.18796C20.694 7.188 20.6939 7.18804 20.6939 7.18808H19.9495C19.9495 7.18804 19.9495 7.188 19.9494 7.18796C19.9481 7.18657 19.9468 7.18474 19.946 7.18274C19.9453 7.18105 19.9447 7.17888 19.9447 7.17553C19.9447 7.17219 19.9453 7.17002 19.946 7.16833C19.9468 7.16633 19.9481 7.1645 19.9494 7.16311Z" fill="white" stroke="white"/>
</svg>
