<svg width="20" height="20" viewBox="0 0 20 20" fill="none" xmlns="http://www.w3.org/2000/svg">
<g clip-path="url(#clip0)">
<path d="M19.3333 4.72794V3.99994C19.3333 3.63174 19.0349 3.33328 18.6667 3.33328H17.6666V3.00003C17.666 2.76291 17.5389 2.5441 17.3334 2.42599V1.99997C17.3334 1.44775 16.8857 1.00006 16.3333 1.00006C15.7811 1.00006 15.3334 1.44775 15.3334 1.99997V2.42599C15.1277 2.5441 15.0008 2.76291 15 3.00003V3.33328H13.9999V1.99997C13.9989 0.895844 13.1041 0.00106812 12 0H8.00003C6.8959 0.00106812 6.00113 0.895844 6.00006 1.99997V3.33328H5V3.00003C4.99924 2.76291 4.87228 2.5441 4.6666 2.42599V1.99997C4.6666 1.44775 4.2189 1.00006 3.66669 1.00006C3.11432 1.00006 2.66663 1.44775 2.66663 1.99997V2.42599C2.46109 2.5441 2.33398 2.76291 2.33337 3.00003V3.33328H1.33331C0.965118 3.33328 0.666656 3.63174 0.666656 3.99994V4.72794C0.268555 4.86877 0.00167847 5.24445 0 5.66666V6.66672C0.00167847 7.08893 0.268555 7.4646 0.666656 7.60529V17.0613C0.268555 17.2021 0.00167847 17.5777 0 18V18.9999C0 19.5523 0.447693 20 1.00006 20H18.9999C19.5523 20 20 19.5523 20 18.9999V18C19.9983 17.5777 19.7314 17.2021 19.3333 17.0613V7.60529C19.7314 7.4646 19.9983 7.08893 20 6.66672V5.66666C19.9983 5.24445 19.7314 4.86877 19.3333 4.72794ZM18.6667 3.99994V4.6666H17.6666V3.99994H18.6667ZM15.6667 3.00003H17V4.6666H15.6667V3.00003ZM16.0001 1.99997C16.0001 1.81595 16.1493 1.66672 16.3333 1.66672C16.5175 1.66672 16.6667 1.81595 16.6667 1.99997V2.33337H16.0001V1.99997ZM6.66672 1.99997C6.66672 1.26358 7.26364 0.666656 8.00003 0.666656H12C12.7364 0.666656 13.3333 1.26358 13.3333 1.99997V3.33328H12.6666V2.33337C12.6666 1.78101 12.2189 1.33331 11.6667 1.33331H8.33328C7.78107 1.33331 7.33337 1.78101 7.33337 2.33337V3.33328H6.66672V1.99997ZM12 3.33328H8.00003V2.33337C8.00003 2.1492 8.14926 1.99997 8.33328 1.99997H11.6667C11.8507 1.99997 12 2.1492 12 2.33337V3.33328ZM6.33331 3.99994H15V4.6666H5V3.99994H6.33331ZM3.00003 3.00003H4.33334V4.6666H3.00003V3.00003ZM3.33328 1.99997C3.33328 1.81595 3.48251 1.66672 3.66669 1.66672C3.85071 1.66672 3.99994 1.81595 3.99994 1.99997V2.33337H3.33328V1.99997ZM1.33331 3.99994H2.33337V4.6666H1.33331V3.99994ZM18.6667 17H1.33331V7.66663H18.6667V17ZM19.3333 18.9999C19.3333 19.1841 19.1841 19.3333 18.9999 19.3333H1.00006C0.815888 19.3333 0.666656 19.1841 0.666656 18.9999V18C0.666656 17.8159 0.815888 17.6666 1.00006 17.6666H18.9999C19.1841 17.6666 19.3333 17.8159 19.3333 18V18.9999ZM19.3333 6.66672C19.3333 6.85074 19.1841 6.99997 18.9999 6.99997H1.00006C0.815888 6.99997 0.666656 6.85074 0.666656 6.66672V5.66666C0.666656 5.48264 0.815888 5.3334 1.00006 5.3334H18.9999C19.1841 5.3334 19.3333 5.48264 19.3333 5.66666V6.66672Z" fill="#0E5FAD"/>
<path d="M3.00008 11.6667H3.33333V12C3.33333 12.3682 3.63179 12.6666 3.99998 12.6666H4.66664C5.03484 12.6666 5.33345 12.3682 5.33345 12V11.6667H5.6667C6.0349 11.6667 6.33336 11.3683 6.33336 11.0001V10.3334C6.33336 9.96523 6.0349 9.66662 5.6667 9.66662H5.33345V9.33337C5.33345 8.96517 5.03484 8.66671 4.66664 8.66671H3.99998C3.63179 8.66671 3.33333 8.96517 3.33333 9.33337V9.66662H3.00008C2.63188 9.66662 2.33342 9.96523 2.33342 10.3334V11.0001C2.33342 11.3683 2.63188 11.6667 3.00008 11.6667ZM3.00008 10.3334H3.66673C3.85075 10.3334 3.99998 10.184 3.99998 10V9.33337H4.66664V10C4.66664 10.184 4.81602 10.3334 5.00005 10.3334H5.6667V11.0001H5.00005C4.81602 11.0001 4.66664 11.1493 4.66664 11.3333V12H3.99998V11.3333C3.99998 11.1493 3.85075 11.0001 3.66673 11.0001H3.00008V10.3334Z" fill="#0E5FAD"/>
<path d="M14.3334 11.6668H17C17.3682 11.6668 17.6666 11.3683 17.6666 11.0001V10.3335C17.6666 9.96526 17.3682 9.66664 17 9.66664H14.3334C13.9652 9.66664 13.6667 9.96526 13.6667 10.3335V11.0001C13.6667 11.3683 13.9652 11.6668 14.3334 11.6668ZM14.3334 10.3335H17V11.0001H14.3334V10.3335Z" fill="#0E5FAD"/>
<path d="M8.44827 13.0001H9.5379L8.68387 15.5614C8.63336 15.7134 8.69806 15.8798 8.83798 15.9578C8.97806 16.0358 9.15369 16.0031 9.25623 15.88L12.1336 12.4266C12.299 12.228 12.3347 11.9516 12.2251 11.7174C12.1156 11.4833 11.8804 11.3336 11.6219 11.3333H10.7482L11.1909 9.85796C11.2513 9.65624 11.2129 9.43758 11.0871 9.26867C10.9612 9.0996 10.7629 8.99996 10.5523 8.99996H9.24829C8.95334 8.99874 8.69302 9.19237 8.60956 9.47542L7.80954 12.142C7.74911 12.3439 7.78757 12.5624 7.91345 12.7315C8.03918 12.9004 8.23755 13.0001 8.44827 13.0001ZM9.24829 9.66662H10.5523L10.1097 11.142C10.0491 11.3439 10.0877 11.5624 10.2134 11.7314C10.3393 11.9005 10.5375 12 10.7482 12H11.6219L9.87527 14.0964L10.3166 12.7721C10.3504 12.6703 10.3333 12.5586 10.2706 12.4718C10.2081 12.3848 10.1074 12.3334 10.0002 12.3334H8.44827L9.24829 9.66662Z" fill="#0E5FAD"/>
<path d="M2.33334 16.3333H3C3.18402 16.3333 3.33325 16.1841 3.33325 16C3.33325 15.8159 3.18402 15.6666 3 15.6666H2.33334C2.14917 15.6666 1.99994 15.8159 1.99994 16C1.99994 16.1841 2.14917 16.3333 2.33334 16.3333Z" fill="#0E5FAD"/>
<path d="M3.99987 16C3.99987 16.1841 4.1491 16.3333 4.33327 16.3333H6.66665C6.85067 16.3333 6.9999 16.1841 6.9999 16C6.9999 15.8159 6.85067 15.6666 6.66665 15.6666H4.33327C4.1491 15.6666 3.99987 15.8159 3.99987 16Z" fill="#0E5FAD"/>
</g>
<defs>
<clipPath id="clip0">
<rect width="20" height="20" fill="white"/>
</clipPath>
</defs>
</svg>
