<svg width="20" height="20" viewBox="0 0 20 20" fill="none" xmlns="http://www.w3.org/2000/svg">
<g clip-path="url(#clip0)">
<path d="M19.3333 4.72794V3.99994C19.3333 3.63174 19.0349 3.33328 18.6667 3.33328H17.6666V3.00003C17.666 2.76291 17.5389 2.5441 17.3334 2.42599V1.99997C17.3334 1.44775 16.8857 1.00006 16.3333 1.00006C15.7811 1.00006 15.3334 1.44775 15.3334 1.99997V2.42599C15.1277 2.5441 15.0008 2.76291 15 3.00003V3.33328H13.9999V1.99997C13.9989 0.895844 13.1041 0.00106812 12 0H8.00003C6.8959 0.00106812 6.00113 0.895844 6.00006 1.99997V3.33328H5V3.00003C4.99924 2.76291 4.87228 2.5441 4.6666 2.42599V1.99997C4.6666 1.44775 4.2189 1.00006 3.66669 1.00006C3.11432 1.00006 2.66663 1.44775 2.66663 1.99997V2.42599C2.46109 2.5441 2.33398 2.76291 2.33337 3.00003V3.33328H1.33331C0.965118 3.33328 0.666656 3.63174 0.666656 3.99994V4.72794C0.268555 4.86877 0.00167847 5.24445 0 5.66666V6.66672C0.00167847 7.08893 0.268555 7.4646 0.666656 7.60529V17.0613C0.268555 17.2021 0.00167847 17.5777 0 18V18.9999C0 19.5523 0.447693 20 1.00006 20H18.9999C19.5523 20 20 19.5523 20 18.9999V18C19.9983 17.5777 19.7314 17.2021 19.3333 17.0613V7.60529C19.7314 7.4646 19.9983 7.08893 20 6.66672V5.66666C19.9983 5.24445 19.7314 4.86877 19.3333 4.72794ZM18.6667 3.99994V4.6666H17.6666V3.99994H18.6667ZM15.6667 3.00003H17V4.6666H15.6667V3.00003ZM16.0001 1.99997C16.0001 1.81595 16.1493 1.66672 16.3333 1.66672C16.5175 1.66672 16.6667 1.81595 16.6667 1.99997V2.33337H16.0001V1.99997ZM6.66672 1.99997C6.66672 1.26358 7.26364 0.666656 8.00003 0.666656H12C12.7364 0.666656 13.3333 1.26358 13.3333 1.99997V3.33328H12.6666V2.33337C12.6666 1.78101 12.2189 1.33331 11.6667 1.33331H8.33328C7.78107 1.33331 7.33337 1.78101 7.33337 2.33337V3.33328H6.66672V1.99997ZM12 3.33328H8.00003V2.33337C8.00003 2.1492 8.14926 1.99997 8.33328 1.99997H11.6667C11.8507 1.99997 12 2.1492 12 2.33337V3.33328ZM6.33331 3.99994H15V4.6666H5V3.99994H6.33331ZM3.00003 3.00003H4.33334V4.6666H3.00003V3.00003ZM3.33328 1.99997C3.33328 1.81595 3.48251 1.66672 3.66669 1.66672C3.85071 1.66672 3.99994 1.81595 3.99994 1.99997V2.33337H3.33328V1.99997ZM1.33331 3.99994H2.33337V4.6666H1.33331V3.99994ZM18.6667 17H1.33331V7.66663H18.6667V17ZM19.3333 18.9999C19.3333 19.1841 19.1841 19.3333 18.9999 19.3333H1.00006C0.815888 19.3333 0.666656 19.1841 0.666656 18.9999V18C0.666656 17.8159 0.815888 17.6666 1.00006 17.6666H18.9999C19.1841 17.6666 19.3333 17.8159 19.3333 18V18.9999ZM19.3333 6.66672C19.3333 6.85074 19.1841 6.99997 18.9999 6.99997H1.00006C0.815888 6.99997 0.666656 6.85074 0.666656 6.66672V5.66666C0.666656 5.48264 0.815888 5.3334 1.00006 5.3334H18.9999C19.1841 5.3334 19.3333 5.48264 19.3333 5.66666V6.66672Z" fill="black" fill-opacity="0.4"/>
<path d="M3.00009 11.6667H3.33334V12C3.33334 12.3682 3.63181 12.6666 4 12.6666H4.66666C5.03485 12.6666 5.33347 12.3682 5.33347 12V11.6667H5.66672C6.03491 11.6667 6.33337 11.3683 6.33337 11.0001V10.3334C6.33337 9.96521 6.03491 9.66659 5.66672 9.66659H5.33347V9.33334C5.33347 8.96515 5.03485 8.66669 4.66666 8.66669H4C3.63181 8.66669 3.33334 8.96515 3.33334 9.33334V9.66659H3.00009C2.6319 9.66659 2.33344 9.96521 2.33344 10.3334V11.0001C2.33344 11.3683 2.6319 11.6667 3.00009 11.6667ZM3.00009 10.3334H3.66675C3.85077 10.3334 4 10.184 4 10V9.33334H4.66666V10C4.66666 10.184 4.81604 10.3334 5.00006 10.3334H5.66672V11.0001H5.00006C4.81604 11.0001 4.66666 11.1493 4.66666 11.3333V12H4V11.3333C4 11.1493 3.85077 11.0001 3.66675 11.0001H3.00009V10.3334Z" fill="black" fill-opacity="0.4"/>
<path d="M14.3333 11.6667H17C17.3682 11.6667 17.6666 11.3683 17.6666 11.0001V10.3334C17.6666 9.96524 17.3682 9.66663 17 9.66663H14.3333C13.9651 9.66663 13.6667 9.96524 13.6667 10.3334V11.0001C13.6667 11.3683 13.9651 11.6667 14.3333 11.6667ZM14.3333 10.3334H17V11.0001H14.3333V10.3334Z" fill="black" fill-opacity="0.4"/>
<path d="M8.66676 13.0001H9.75639L8.90236 15.5614C8.85185 15.7134 8.91655 15.8799 9.05647 15.9579C9.19655 16.0358 9.37218 16.0032 9.47472 15.88L12.3521 12.4267C12.5175 12.228 12.5532 11.9517 12.4436 11.7174C12.3341 11.4834 12.0989 11.3337 11.8404 11.3334H10.9667L11.4094 9.85801C11.4698 9.65629 11.4314 9.43763 11.3056 9.26871C11.1797 9.09965 10.9814 9.00001 10.7708 9.00001H9.46678C9.17183 8.99879 8.91151 9.19242 8.82805 9.47547L8.02803 12.1421C7.96761 12.344 8.00606 12.5625 8.13194 12.7315C8.25767 12.9005 8.45604 13.0001 8.66676 13.0001ZM9.46678 9.66666H10.7708L10.3281 11.142C10.2676 11.3439 10.3062 11.5624 10.4319 11.7315C10.5578 11.9005 10.756 12 10.9667 12H11.8404L10.0938 14.0964L10.5351 12.7721C10.5689 12.6704 10.5518 12.5587 10.4891 12.4718C10.4266 12.3849 10.3259 12.3334 10.2187 12.3334H8.66676L9.46678 9.66666Z" fill="black" fill-opacity="0.4"/>
<path d="M2.33334 16.3333H3C3.18402 16.3333 3.33325 16.1841 3.33325 16C3.33325 15.8159 3.18402 15.6666 3 15.6666H2.33334C2.14917 15.6666 1.99994 15.8159 1.99994 16C1.99994 16.1841 2.14917 16.3333 2.33334 16.3333Z" fill="black" fill-opacity="0.4"/>
<path d="M3.99988 16C3.99988 16.1841 4.14911 16.3333 4.33328 16.3333H6.66666C6.85068 16.3333 6.99991 16.1841 6.99991 16C6.99991 15.8159 6.85068 15.6666 6.66666 15.6666H4.33328C4.14911 15.6666 3.99988 15.8159 3.99988 16Z" fill="black" fill-opacity="0.4"/>
</g>
<defs>
<clipPath id="clip0">
<rect width="20" height="20" fill="white"/>
</clipPath>
</defs>
</svg>
