<svg width="238" height="57" viewBox="0 0 238 57" fill="none" xmlns="http://www.w3.org/2000/svg">
<path d="M137.546 0L115.656 18.2859L137.546 36.5849V0Z" fill="white"/>
<path d="M164.831 18.7836L151.182 0H143.466V36.5718H152.74L152.531 16.3735L164.019 32.485H165.657L177.145 16.3735L176.922 36.5718H186.21V0H178.494L164.831 18.7836Z" fill="white"/>
<path d="M21.3654 18.7836L7.71565 0H0V36.5718H9.2745L9.06491 16.3735L20.5401 32.485H22.1907L33.6659 16.3735L33.4563 36.5718H42.7308V0H35.0283L21.3654 18.7836Z" fill="white"/>
<path d="M65.7202 0L46.7389 36.5718H57.022L60.5851 29.1972H77.2085L66.6633 20.3948H64.8556L69.6893 10.8327L75.2959 22.2941L82.409 36.5718H93.5437L74.3135 0H65.7202Z" fill="white"/>
<path d="M218.763 22.2941L225.876 36.5718H237.011L217.768 0H209.187L190.206 36.5718H200.489L204.052 29.1972H220.663L210.131 20.3948H208.31L213.157 10.8327L218.763 22.2941Z" fill="white"/>
<path d="M107.417 18.3383V8.80238H119.534L130.014 0H106.579C104.692 0 101.548 0 99.5573 2.05651C97.5662 4.11302 97.5138 7.67588 97.5138 9.33943V18.3383V27.2847C97.5138 28.9483 97.5138 32.4064 99.5573 34.5677C101.601 36.729 104.666 36.6242 106.553 36.6242H130.053L119.573 27.8087H107.417V18.3383Z" fill="white"/>
<path d="M0.258789 52L2.99072 44.5098H4.19922L6.98975 52H6.10107L5.53955 50.4595H1.76025L1.15967 52H0.258789ZM5.271 49.7295L3.61084 45.1299L1.96045 49.7295H5.271ZM16.2378 48.5088V51.2505H18.5474C18.9054 51.2505 19.1886 51.2358 19.397 51.2065C19.6053 51.1772 19.7762 51.117 19.9097 51.0259C20.0448 50.9347 20.1432 50.7996 20.2051 50.6206C20.2669 50.4416 20.2979 50.1982 20.2979 49.8906C20.2979 49.4837 20.2572 49.1834 20.1758 48.9897C20.096 48.7961 19.9609 48.6675 19.7705 48.604C19.5801 48.5405 19.2887 48.5088 18.8965 48.5088H16.2378ZM16.2378 45.2495V47.7788H18.6182C18.9941 47.7788 19.2863 47.7406 19.4946 47.6641C19.7046 47.5876 19.8543 47.4525 19.9438 47.2588C20.0334 47.0651 20.0781 46.7892 20.0781 46.4312C20.0781 45.9738 19.9967 45.6629 19.834 45.4985C19.6729 45.3325 19.3677 45.2495 18.9185 45.2495H16.2378ZM19.2261 52H15.4077V44.5098H19.0161C19.672 44.5098 20.153 44.6522 20.459 44.937C20.765 45.2218 20.918 45.6963 20.918 46.3604C20.918 46.6794 20.8968 46.9422 20.8545 47.1489C20.8138 47.354 20.7251 47.5347 20.5884 47.6909C20.4517 47.8472 20.2482 47.9733 19.978 48.0693C20.3003 48.1589 20.5444 48.2785 20.7104 48.4282C20.8781 48.5763 20.9912 48.7619 21.0498 48.9849C21.1084 49.2062 21.1377 49.4943 21.1377 49.8491C21.1377 50.5588 20.9912 51.0951 20.6982 51.458C20.4069 51.8193 19.9162 52 19.2261 52ZM31.6919 52V45.269H29.2407V44.5098H34.9609L34.9512 45.269H32.5317V52H31.6919ZM43.0664 48.2598C43.0664 49.0817 43.1136 49.736 43.208 50.2227C43.3024 50.7093 43.4644 51.0877 43.6938 51.3579C43.9233 51.6281 44.235 51.8161 44.6289 51.9219C45.0244 52.0277 45.5501 52.0806 46.2061 52.0806C46.8669 52.0806 47.3966 52.0277 47.7954 51.9219C48.1942 51.8161 48.5067 51.6289 48.7329 51.3604C48.9608 51.0918 49.1219 50.7126 49.2163 50.2227C49.3107 49.7327 49.3579 49.0785 49.3579 48.2598C49.3579 47.4362 49.3115 46.7795 49.2188 46.2896C49.126 45.798 48.9657 45.418 48.7378 45.1494C48.5099 44.8792 48.1991 44.6921 47.8052 44.5879C47.4129 44.4821 46.8864 44.4292 46.2256 44.4292C45.5599 44.4292 45.0285 44.4821 44.6313 44.5879C44.2358 44.6921 43.9233 44.8792 43.6938 45.1494C43.466 45.4196 43.304 45.7988 43.208 46.2871C43.1136 46.7754 43.0664 47.4329 43.0664 48.2598ZM43.9062 48.2598C43.9062 47.5371 43.9315 46.9845 43.9819 46.6021C44.0324 46.2196 44.1341 45.9225 44.2871 45.7109C44.4417 45.4977 44.6647 45.3529 44.9561 45.2764C45.249 45.1982 45.6689 45.1592 46.2158 45.1592C46.7578 45.1592 47.1745 45.1982 47.4658 45.2764C47.7588 45.3529 47.9818 45.4969 48.1348 45.7085C48.2878 45.9201 48.3895 46.2179 48.4399 46.6021C48.4904 46.9845 48.5156 47.5371 48.5156 48.2598C48.5156 48.9759 48.4896 49.5252 48.4375 49.9077C48.3854 50.2886 48.2829 50.5848 48.1299 50.7964C47.9785 51.008 47.7547 51.1536 47.4585 51.2334C47.1639 51.3115 46.7497 51.3506 46.2158 51.3506C45.6836 51.3506 45.2694 51.3115 44.9731 51.2334C44.6769 51.1536 44.4515 51.008 44.2969 50.7964C44.1439 50.5832 44.0405 50.2837 43.9868 49.8979C43.9331 49.5122 43.9062 48.9661 43.9062 48.2598ZM59.8169 52V45.269H57.3657V44.5098H63.0859L63.0762 45.269H60.6567V52H59.8169ZM71.1914 48.2598C71.1914 49.0817 71.2386 49.736 71.333 50.2227C71.4274 50.7093 71.5894 51.0877 71.8188 51.3579C72.0483 51.6281 72.36 51.8161 72.7539 51.9219C73.1494 52.0277 73.6751 52.0806 74.3311 52.0806C74.9919 52.0806 75.5216 52.0277 75.9204 51.9219C76.3192 51.8161 76.6317 51.6289 76.8579 51.3604C77.0858 51.0918 77.2469 50.7126 77.3413 50.2227C77.4357 49.7327 77.4829 49.0785 77.4829 48.2598C77.4829 47.4362 77.4365 46.7795 77.3438 46.2896C77.251 45.798 77.0907 45.418 76.8628 45.1494C76.6349 44.8792 76.3241 44.6921 75.9302 44.5879C75.5379 44.4821 75.0114 44.4292 74.3506 44.4292C73.6849 44.4292 73.1535 44.4821 72.7563 44.5879C72.3608 44.6921 72.0483 44.8792 71.8188 45.1494C71.591 45.4196 71.429 45.7988 71.333 46.2871C71.2386 46.7754 71.1914 47.4329 71.1914 48.2598ZM72.0312 48.2598C72.0312 47.5371 72.0565 46.9845 72.1069 46.6021C72.1574 46.2196 72.2591 45.9225 72.4121 45.7109C72.5667 45.4977 72.7897 45.3529 73.0811 45.2764C73.374 45.1982 73.7939 45.1592 74.3408 45.1592C74.8828 45.1592 75.2995 45.1982 75.5908 45.2764C75.8838 45.3529 76.1068 45.4969 76.2598 45.7085C76.4128 45.9201 76.5145 46.2179 76.5649 46.6021C76.6154 46.9845 76.6406 47.5371 76.6406 48.2598C76.6406 48.9759 76.6146 49.5252 76.5625 49.9077C76.5104 50.2886 76.4079 50.5848 76.2549 50.7964C76.1035 51.008 75.8797 51.1536 75.5835 51.2334C75.2889 51.3115 74.8747 51.3506 74.3408 51.3506C73.8086 51.3506 73.3944 51.3115 73.0981 51.2334C72.8019 51.1536 72.5765 51.008 72.4219 50.7964C72.2689 50.5832 72.1655 50.2837 72.1118 49.8979C72.0581 49.5122 72.0312 48.9661 72.0312 48.2598ZM86.9116 48.5088V51.2505H89.2212C89.5793 51.2505 89.8625 51.2358 90.0708 51.2065C90.2791 51.1772 90.45 51.117 90.5835 51.0259C90.7186 50.9347 90.8171 50.7996 90.8789 50.6206C90.9408 50.4416 90.9717 50.1982 90.9717 49.8906C90.9717 49.4837 90.931 49.1834 90.8496 48.9897C90.7699 48.7961 90.6348 48.6675 90.4443 48.604C90.2539 48.5405 89.9626 48.5088 89.5703 48.5088H86.9116ZM86.9116 45.2495V47.7788H89.292C89.668 47.7788 89.9601 47.7406 90.1685 47.6641C90.3784 47.5876 90.5282 47.4525 90.6177 47.2588C90.7072 47.0651 90.752 46.7892 90.752 46.4312C90.752 45.9738 90.6706 45.6629 90.5078 45.4985C90.3467 45.3325 90.0415 45.2495 89.5923 45.2495H86.9116ZM89.8999 52H86.0815V44.5098H89.6899C90.3459 44.5098 90.8268 44.6522 91.1328 44.937C91.4388 45.2218 91.5918 45.6963 91.5918 46.3604C91.5918 46.6794 91.5706 46.9422 91.5283 47.1489C91.4876 47.354 91.3989 47.5347 91.2622 47.6909C91.1255 47.8472 90.922 47.9733 90.6519 48.0693C90.9741 48.1589 91.2183 48.2785 91.3843 48.4282C91.5519 48.5763 91.665 48.7619 91.7236 48.9849C91.7822 49.2062 91.8115 49.4943 91.8115 49.8491C91.8115 50.5588 91.665 51.0951 91.3721 51.458C91.0807 51.8193 90.59 52 89.8999 52ZM100.054 52L102.786 44.5098H103.994L106.785 52H105.896L105.334 50.4595H101.555L100.955 52H100.054ZM105.066 49.7295L103.406 45.1299L101.755 49.7295H105.066ZM116.033 49.0703V52H115.203V44.5098H118.772C119.218 44.5098 119.588 44.5854 119.883 44.7368C120.177 44.8882 120.397 45.1242 120.542 45.4448C120.688 45.7638 120.762 46.1691 120.762 46.6606C120.762 47.2645 120.678 47.7422 120.51 48.0938C120.344 48.4453 120.08 48.696 119.717 48.8457C119.354 48.9954 118.866 49.0703 118.252 49.0703H116.033ZM116.033 48.3403H118.022C118.509 48.3403 118.884 48.3045 119.148 48.2329C119.412 48.1613 119.606 48.0173 119.731 47.8008C119.858 47.5843 119.922 47.2572 119.922 46.8193C119.922 46.2383 119.832 45.8314 119.651 45.5986C119.472 45.3659 119.142 45.2495 118.662 45.2495H116.033V48.3403ZM129.412 44.5098H130.242V47.6812H132.742C133.292 47.6812 133.729 47.7552 134.053 47.9033C134.377 48.0498 134.611 48.2817 134.756 48.5991C134.901 48.9165 134.973 49.3364 134.973 49.8589C134.973 50.37 134.898 50.7817 134.749 51.0942C134.6 51.4067 134.364 51.6362 134.038 51.7827C133.714 51.9276 133.289 52 132.761 52H129.412V44.5098ZM130.242 48.4307V51.2505H132.712C133.098 51.2505 133.394 51.2049 133.599 51.1138C133.805 51.0226 133.946 50.8786 134.021 50.6816C134.096 50.4847 134.133 50.2104 134.133 49.8589C134.133 49.4715 134.086 49.1769 133.992 48.9751C133.899 48.7716 133.743 48.63 133.523 48.5503C133.303 48.4705 132.99 48.4307 132.583 48.4307H130.242ZM137.002 44.5098V52H136.172V44.5098H137.002ZM155.586 48.2598C155.586 49.0817 155.633 49.736 155.728 50.2227C155.822 50.7093 155.984 51.0877 156.213 51.3579C156.443 51.6281 156.755 51.8161 157.148 51.9219C157.544 52.0277 158.07 52.0806 158.726 52.0806C159.386 52.0806 159.916 52.0277 160.315 51.9219C160.714 51.8161 161.026 51.6289 161.252 51.3604C161.48 51.0918 161.641 50.7126 161.736 50.2227C161.83 49.7327 161.877 49.0785 161.877 48.2598C161.877 47.4362 161.831 46.7795 161.738 46.2896C161.646 45.798 161.485 45.418 161.257 45.1494C161.029 44.8792 160.719 44.6921 160.325 44.5879C159.932 44.4821 159.406 44.4292 158.745 44.4292C158.079 44.4292 157.548 44.4821 157.151 44.5879C156.755 44.6921 156.443 44.8792 156.213 45.1494C155.986 45.4196 155.824 45.7988 155.728 46.2871C155.633 46.7754 155.586 47.4329 155.586 48.2598ZM156.426 48.2598C156.426 47.5371 156.451 46.9845 156.501 46.6021C156.552 46.2196 156.654 45.9225 156.807 45.7109C156.961 45.4977 157.184 45.3529 157.476 45.2764C157.769 45.1982 158.188 45.1592 158.735 45.1592C159.277 45.1592 159.694 45.1982 159.985 45.2764C160.278 45.3529 160.501 45.4969 160.654 45.7085C160.807 45.9201 160.909 46.2179 160.959 46.6021C161.01 46.9845 161.035 47.5371 161.035 48.2598C161.035 48.9759 161.009 49.5252 160.957 49.9077C160.905 50.2886 160.802 50.5848 160.649 50.7964C160.498 51.008 160.274 51.1536 159.978 51.2334C159.683 51.3115 159.269 51.3506 158.735 51.3506C158.203 51.3506 157.789 51.3115 157.493 51.2334C157.196 51.1536 156.971 51.008 156.816 50.7964C156.663 50.5832 156.56 50.2837 156.506 49.8979C156.453 49.5122 156.426 48.9661 156.426 48.2598ZM171.316 47.8203H175.696V44.5195H176.526V52H175.696V48.5503H171.316V52H170.486V44.5195H171.316V47.8203ZM191.316 52H190.486V45.269H186.865V49.8101C186.865 50.549 186.758 51.0991 186.543 51.4604C186.33 51.8201 185.968 52 185.457 52H184.927V51.2603H185.127C185.358 51.2603 185.536 51.2277 185.662 51.1626C185.789 51.0959 185.882 50.9657 185.942 50.772C186.004 50.5783 186.035 50.2878 186.035 49.9004V44.5195H191.316V52ZM199.819 52L202.551 44.5098H203.76L206.55 52H205.662L205.1 50.4595H201.321L200.72 52H199.819ZM204.832 49.7295L203.171 45.1299L201.521 49.7295H204.832ZM214.917 44.5098H215.747V51.4189L220.007 44.5098H221.338V52H220.508V45.1396L216.238 52H214.917V44.5098ZM218.967 43.1792C218.967 43.3631 218.928 43.4966 218.85 43.5796C218.772 43.6626 218.67 43.7139 218.545 43.7334C218.42 43.7513 218.237 43.7603 217.998 43.7603C217.765 43.7603 217.586 43.7513 217.461 43.7334C217.336 43.7139 217.234 43.6618 217.156 43.5771C217.078 43.4925 217.039 43.3599 217.039 43.1792H216.467C216.467 43.4836 216.519 43.7179 216.621 43.8823C216.724 44.0467 216.884 44.1606 217.102 44.2241C217.32 44.2876 217.619 44.3193 217.998 44.3193C218.403 44.3193 218.716 44.2884 218.936 44.2266C219.157 44.1631 219.314 44.05 219.407 43.8872C219.501 43.7244 219.548 43.4884 219.548 43.1792H218.967ZM231.13 47.8203H235.51V44.5195H236.34V52H235.51V48.5503H231.13V52H230.3V44.5195H231.13V47.8203Z" fill="white"/>
</svg>
