<svg width="16" height="16" viewBox="0 0 16 16" fill="none" xmlns="http://www.w3.org/2000/svg">
<path d="M13.0803 6.13334H11.4666V3.46669C11.4667 1.55519 9.91146 0 7.99999 0C6.08852 0 4.53333 1.55519 4.53333 3.46666V6.13331H2.91977C2.48618 6.13331 2.13336 6.48612 2.13336 6.91972V14.1322C2.13336 14.1326 2.1333 14.1329 2.1333 14.1333C2.1333 14.1337 2.13336 14.134 2.13336 14.1344V15.2136C2.13336 15.6472 2.48618 16 2.91977 16H13.0803C13.5139 16 13.8667 15.6472 13.8667 15.2136V6.91972C13.8667 6.48612 13.5139 6.13334 13.0803 6.13334ZM5.06668 3.46666C5.06668 1.84931 6.38268 0.533312 8.00002 0.533312C9.61736 0.533312 10.9334 1.84931 10.9334 3.46666V6.13331H10.4V3.46666C10.4 2.14347 9.32321 1.06666 8.00002 1.06666C6.67683 1.06666 5.60002 2.14347 5.60002 3.46666V6.13331H5.06668V3.46666ZM6.13333 6.13334V3.46669C6.13333 2.43734 6.97068 1.60003 7.99999 1.60003C9.0293 1.60003 9.86664 2.43738 9.86664 3.46669V6.13334H6.13333ZM2.91977 6.66666H4.79999H5.86664H10.1333H11.2H13.0803C13.2197 6.66666 13.3333 6.78025 13.3333 6.91972V13.8667H2.66671V6.91972C2.66671 6.78028 2.7803 6.66666 2.91977 6.66666ZM13.0803 15.4667H2.91977C2.7803 15.4667 2.66671 15.3531 2.66671 15.2136V14.4H13.3334V15.2136C13.3334 15.3531 13.2198 15.4667 13.0803 15.4667Z" fill="white" fill-opacity="0.8"/>
<path d="M7.13194 10.3424L6.67434 12.2029C6.65488 12.2827 6.673 12.3667 6.72341 12.4312C6.77381 12.4958 6.85141 12.5333 6.93328 12.5333H9.06662C9.14849 12.5333 9.22609 12.4958 9.27649 12.4312C9.32715 12.3667 9.34531 12.2827 9.32556 12.2029L8.86796 10.3424C9.16237 10.0907 9.33331 9.72587 9.33331 9.33334C9.33331 8.59816 8.73518 8 7.99997 8C7.26478 8 6.66663 8.59812 6.66663 9.33334C6.66663 9.72587 6.83756 10.0907 7.13194 10.3424ZM7.99993 8.53334C8.441 8.53334 8.79993 8.89228 8.79993 9.33334C8.79993 9.60775 8.65965 9.86 8.42447 10.0083C8.3274 10.0696 8.28047 10.1862 8.30765 10.2976L8.72634 12H7.27353L7.69219 10.2976C7.71937 10.1861 7.67247 10.0696 7.57537 10.0083C7.34019 9.85997 7.19991 9.60772 7.19991 9.33331C7.19994 8.89228 7.55887 8.53334 7.99993 8.53334Z" fill="white" fill-opacity="0.8"/>
</svg>
