<svg width="72" height="72" viewBox="0 0 72 72" fill="none" xmlns="http://www.w3.org/2000/svg">
<path d="M66.9597 32.5354L65.0952 25.0774C65.6049 24.9691 65.9874 24.5168 65.9874 23.975V22.7725C65.9874 20.1617 63.8633 18.0377 61.2526 18.0377H52.76V15.5574C52.76 14.2726 51.7148 13.2275 50.4301 13.2275H7.13981C5.85506 13.2275 4.80994 14.2726 4.80994 15.5574V36C4.80994 36.6225 5.31464 37.1274 5.93733 37.1274C6.55988 37.1274 7.06472 36.6227 7.06472 36V15.5574C7.06472 15.5159 7.09833 15.4823 7.13981 15.4823H50.43C50.4714 15.4823 50.505 15.5159 50.505 15.5574V36.0003C50.505 36.6228 51.0098 37.1277 51.6324 37.1277C52.255 37.1277 52.7598 36.623 52.7598 36.0003V34.7223H66.0586C66.0597 34.7223 66.0606 34.7226 66.0615 34.7226C66.0627 34.7226 66.0637 34.7224 66.0646 34.7224C67.7011 34.7235 69.0906 35.7976 69.5679 37.2777H66.0624C65.4398 37.2777 64.935 37.7824 64.935 38.4051V40.8101C64.935 42.7579 66.5196 44.3424 68.4674 44.3424H69.7451V49.3027H66.7973C65.8289 46.5067 63.171 44.4926 60.0498 44.4926C56.9287 44.4926 54.2706 46.5067 53.3024 49.3027H52.7595V40.8099C52.7595 40.1874 52.2548 39.6826 51.6322 39.6826C51.0096 39.6826 50.5048 40.1873 50.5048 40.8099V49.3024H27.1149C26.1465 46.5064 23.4886 44.4923 20.3674 44.4923C17.2463 44.4923 14.5882 46.5064 13.62 49.3024H7.13981C7.09833 49.3024 7.06472 49.2688 7.06472 49.2273V46.7471H11.9499C12.5724 46.7471 13.0773 46.2424 13.0773 45.6197C13.0773 44.997 12.5726 44.4923 11.9499 44.4923H1.12739C0.504844 44.4923 0 44.997 0 45.6197C0 46.2424 0.504703 46.7471 1.12739 46.7471H4.81008V49.2273C4.81008 50.5121 5.8552 51.5572 7.13995 51.5572H13.2296C13.2293 51.5822 13.2276 51.6071 13.2276 51.6323C13.2276 55.5692 16.4306 58.7721 20.3674 58.7721C24.3042 58.7721 27.5072 55.5692 27.5072 51.6323C27.5072 51.607 27.5055 51.5822 27.5053 51.5572H52.912C52.9117 51.5822 52.91 51.6071 52.91 51.6323C52.91 55.5692 56.113 58.7721 60.0498 58.7721C63.9866 58.7721 67.1896 55.5692 67.1896 51.6323C67.1896 51.607 67.188 51.5822 67.1877 51.5572H70.8725C71.495 51.5572 71.9999 51.0525 71.9999 50.4298V38.4048C72 35.436 69.8095 32.9693 66.9597 32.5354ZM52.76 20.2923H61.2526C62.6202 20.2923 63.7328 21.405 63.7328 22.7725V22.8476H52.76V20.2923ZM52.76 32.4676V25.1023H62.7774L64.6187 32.4676H52.76ZM20.3674 56.5177C17.6737 56.5177 15.4823 54.3264 15.4823 51.6326C15.4823 48.9388 17.6737 46.7474 20.3674 46.7474C23.0611 46.7474 25.2526 48.9388 25.2526 51.6326C25.2526 54.3264 23.0611 56.5177 20.3674 56.5177ZM60.0501 56.5177C57.3564 56.5177 55.1649 54.3264 55.1649 51.6326C55.1649 48.9388 57.3564 46.7474 60.0501 46.7474C62.7438 46.7474 64.9353 48.9388 64.9353 51.6326C64.9353 54.3264 62.7438 56.5177 60.0501 56.5177ZM69.7454 42.0877H68.4676C67.7631 42.0877 67.1899 41.5145 67.1899 40.8099V39.5322H69.7452V42.0877H69.7454Z" fill="#0E5FAD"/>
<path d="M20.3674 49.3027C19.0827 49.3027 18.0375 50.3478 18.0375 51.6326C18.0375 52.9173 19.0827 53.9625 20.3674 53.9625C21.6522 53.9625 22.6973 52.9173 22.6973 51.6326C22.6973 50.3478 21.6522 49.3027 20.3674 49.3027Z" fill="#0E5FAD"/>
<path d="M60.0501 49.3027C58.7654 49.3027 57.7202 50.3478 57.7202 51.6326C57.7202 52.9173 58.7654 53.9625 60.0501 53.9625C61.3349 53.9625 62.38 52.9173 62.38 51.6326C62.38 50.3478 61.3349 49.3027 60.0501 49.3027Z" fill="#0E5FAD"/>
<path d="M46.8225 44.4928H29.9874C29.3649 44.4928 28.86 44.9975 28.86 45.6202C28.86 46.2428 29.3647 46.7475 29.9874 46.7475H46.8225C47.445 46.7475 47.9499 46.2428 47.9499 45.6202C47.9499 44.9975 47.4452 44.4928 46.8225 44.4928Z" fill="#0E5FAD"/>
<path d="M17.9625 39.6827H3.53236C2.90981 39.6827 2.40497 40.1874 2.40497 40.8101C2.40497 41.4328 2.90967 41.9375 3.53236 41.9375H17.9625C18.585 41.9375 19.0898 41.4328 19.0898 40.8101C19.0898 40.1874 18.585 39.6827 17.9625 39.6827Z" fill="#0E5FAD"/>
<path d="M39.2022 24.3801C38.762 23.94 38.0481 23.94 37.6079 24.3803L27.5825 34.4056L22.3671 29.1902C21.9268 28.7499 21.213 28.7499 20.7728 29.1902C20.3326 29.6305 20.3326 30.3442 20.7728 30.7845L26.7854 36.797C27.0055 37.0173 27.2941 37.1272 27.5825 37.1272C27.8709 37.1272 28.1596 37.0173 28.3795 36.797L39.202 25.9746C39.6423 25.5341 39.6423 24.8204 39.2022 24.3801Z" fill="#0E5FAD"/>
</svg>
